<svg width="32" height="32" viewBox="0 0 32 32" fill="none" xmlns="http://www.w3.org/2000/svg">
  <rect width="32" height="32" rx="8" fill="#10b981"/>
  <path d="M16 8C12 8 9 11 9 15C9 19 12 22 16 22C20 22 23 19 23 15C23 11 20 8 16 8Z" fill="white"/>
  <path d="M16 10C13.5 10 11.5 12 11.5 14.5C11.5 17 13.5 19 16 19C18.5 19 20.5 17 20.5 14.5C20.5 12 18.5 10 16 10Z" fill="#10b981"/>
  <path d="M16 12C14.5 12 13.5 13 13.5 14.5C13.5 16 14.5 17 16 17C17.5 17 18.5 16 18.5 14.5C18.5 13 17.5 12 16 12Z" fill="white"/>
</svg>